<svg width="132" height="26" viewBox="0 0 132 26" fill="none" xmlns="http://www.w3.org/2000/svg">
<rect y="13" width="4" height="7" fill="#C4C4C4"/>
<rect x="6" y="6" width="4" height="14" fill="#C4C4C4"/>
<rect x="12" width="4" height="20" fill="#C4C4C4"/>
<path d="M34.0234 13.4521C34.0234 15.5732 33.4463 17.1963 32.292 18.3213C31.1436 19.4404 29.4883 20 27.3262 20H23.7666V7.15039H27.7041C29.7021 7.15039 31.2549 7.7041 32.3623 8.81152C33.4697 9.91895 34.0234 11.4658 34.0234 13.4521ZM32.4414 13.5049C32.4414 11.8291 32.0195 10.5664 31.1758 9.7168C30.3379 8.86719 29.0898 8.44238 27.4316 8.44238H25.2607V18.708H27.0801C28.8613 18.708 30.2002 18.2715 31.0967 17.3984C31.9932 16.5195 32.4414 15.2217 32.4414 13.5049ZM44.9746 20L43.375 15.9131H38.2246L36.6426 20H35.1309L40.2109 7.09766H41.4678L46.5215 20H44.9746ZM42.9092 14.5684L41.415 10.5869C41.2217 10.083 41.0225 9.46484 40.8174 8.73242C40.6885 9.29492 40.5039 9.91309 40.2637 10.5869L38.752 14.5684H42.9092ZM55.5391 16.5811C55.5391 17.7119 55.1289 18.5938 54.3086 19.2266C53.4883 19.8594 52.375 20.1758 50.9688 20.1758C49.4453 20.1758 48.2734 19.9795 47.4531 19.5869V18.1455C47.9805 18.3682 48.5547 18.5439 49.1758 18.6729C49.7969 18.8018 50.4121 18.8662 51.0215 18.8662C52.0176 18.8662 52.7676 18.6787 53.2715 18.3037C53.7754 17.9229 54.0273 17.3955 54.0273 16.7217C54.0273 16.2764 53.9365 15.9131 53.7549 15.6318C53.5791 15.3447 53.2803 15.0811 52.8584 14.8408C52.4424 14.6006 51.8066 14.3281 50.9512 14.0234C49.7559 13.5957 48.9004 13.0889 48.3848 12.5029C47.875 11.917 47.6201 11.1523 47.6201 10.209C47.6201 9.21875 47.9922 8.43066 48.7363 7.84473C49.4805 7.25879 50.4648 6.96582 51.6895 6.96582C52.9668 6.96582 54.1416 7.2002 55.2139 7.66895L54.748 8.96973C53.6875 8.52441 52.6562 8.30176 51.6543 8.30176C50.8633 8.30176 50.2451 8.47168 49.7998 8.81152C49.3545 9.15137 49.1318 9.62305 49.1318 10.2266C49.1318 10.6719 49.2139 11.0381 49.3779 11.3252C49.542 11.6064 49.8174 11.8672 50.2041 12.1074C50.5967 12.3418 51.1943 12.6025 51.9971 12.8896C53.3447 13.3701 54.2705 13.8857 54.7744 14.4365C55.2842 14.9873 55.5391 15.7021 55.5391 16.5811ZM67.9229 20H66.4287V13.9531H59.6611V20H58.167V7.15039H59.6611V12.6172H66.4287V7.15039H67.9229V20Z" fill="#EBBB69"/>
<path d="M71.4561 7.15039H75.0859C76.791 7.15039 78.0244 7.40527 78.7861 7.91504C79.5479 8.4248 79.9287 9.23047 79.9287 10.332C79.9287 11.0938 79.7148 11.7236 79.2871 12.2217C78.8652 12.7139 78.2471 13.0332 77.4326 13.1797V13.2676C79.3838 13.6016 80.3594 14.627 80.3594 16.3438C80.3594 17.4922 79.9697 18.3887 79.1904 19.0332C78.417 19.6777 77.333 20 75.9385 20H71.4561V7.15039ZM72.9502 12.6523H75.4111C76.4658 12.6523 77.2246 12.4883 77.6875 12.1602C78.1504 11.8262 78.3818 11.2666 78.3818 10.4814C78.3818 9.76074 78.124 9.24219 77.6084 8.92578C77.0928 8.60352 76.2725 8.44238 75.1475 8.44238H72.9502V12.6523ZM72.9502 13.918V18.7256H75.6309C76.668 18.7256 77.4473 18.5264 77.9688 18.1279C78.4961 17.7236 78.7598 17.0938 78.7598 16.2383C78.7598 15.4414 78.4902 14.8555 77.9512 14.4805C77.418 14.1055 76.6035 13.918 75.5078 13.918H72.9502ZM94.2812 13.5576C94.2812 15.6143 93.7598 17.2314 92.7168 18.4092C91.6797 19.5869 90.2354 20.1758 88.3838 20.1758C86.4912 20.1758 85.0293 19.5986 83.998 18.4443C82.9727 17.2842 82.46 15.6494 82.46 13.54C82.46 11.4482 82.9756 9.82812 84.0068 8.67969C85.0381 7.52539 86.5029 6.94824 88.4014 6.94824C90.2471 6.94824 91.6885 7.53418 92.7256 8.70605C93.7627 9.87793 94.2812 11.4951 94.2812 13.5576ZM84.042 13.5576C84.042 15.2979 84.4111 16.6191 85.1494 17.5215C85.8936 18.418 86.9717 18.8662 88.3838 18.8662C89.8076 18.8662 90.8828 18.418 91.6094 17.5215C92.3359 16.625 92.6992 15.3037 92.6992 13.5576C92.6992 11.8291 92.3359 10.5195 91.6094 9.62891C90.8887 8.73242 89.8193 8.28418 88.4014 8.28418C86.9775 8.28418 85.8936 8.73535 85.1494 9.6377C84.4111 10.5342 84.042 11.8408 84.042 13.5576ZM105.232 20L103.633 15.9131H98.4824L96.9004 20H95.3887L100.469 7.09766H101.726L106.779 20H105.232ZM103.167 14.5684L101.673 10.5869C101.479 10.083 101.28 9.46484 101.075 8.73242C100.946 9.29492 100.762 9.91309 100.521 10.5869L99.0098 14.5684H103.167ZM110.04 14.6562V20H108.546V7.15039H112.07C113.646 7.15039 114.81 7.45215 115.56 8.05566C116.315 8.65918 116.693 9.56738 116.693 10.7803C116.693 12.4795 115.832 13.6279 114.109 14.2256L117.599 20H115.832L112.721 14.6562H110.04ZM110.04 13.373H112.088C113.143 13.373 113.916 13.165 114.408 12.749C114.9 12.3271 115.146 11.6973 115.146 10.8594C115.146 10.0098 114.895 9.39746 114.391 9.02246C113.893 8.64746 113.09 8.45996 111.982 8.45996H110.04V13.373ZM129.93 13.4521C129.93 15.5732 129.353 17.1963 128.198 18.3213C127.05 19.4404 125.395 20 123.232 20H119.673V7.15039H123.61C125.608 7.15039 127.161 7.7041 128.269 8.81152C129.376 9.91895 129.93 11.4658 129.93 13.4521ZM128.348 13.5049C128.348 11.8291 127.926 10.5664 127.082 9.7168C126.244 8.86719 124.996 8.44238 123.338 8.44238H121.167V18.708H122.986C124.768 18.708 126.106 18.2715 127.003 17.3984C127.899 16.5195 128.348 15.2217 128.348 13.5049Z" fill="black"/>
</svg>
