<svg width="30" height="30" viewBox="0 0 30 30" fill="none" xmlns="http://www.w3.org/2000/svg">
<path d="M14.9999 27.5C16.3749 27.5 17.4999 26.375 17.4999 25H12.4999C12.4999 26.375 13.6124 27.5 14.9999 27.5ZM22.4999 20V13.75C22.4999 9.9125 20.4499 6.7 16.8749 5.85V5C16.8749 3.9625 16.0374 3.125 14.9999 3.125C13.9624 3.125 13.1249 3.9625 13.1249 5V5.85C9.53744 6.7 7.49994 9.9 7.49994 13.75V20L5.88744 21.6125C5.09994 22.4 5.64994 23.75 6.76244 23.75H23.2249C24.3374 23.75 24.8999 22.4 24.1124 21.6125L22.4999 20Z" fill="#C6C6C6"/>
<circle cx="23" cy="9" r="3.625" fill="#C4C4C4" stroke="white" stroke-width="0.75"/>
<path d="M24.0947 12H23.6201V8.94727C23.6201 8.69336 23.6279 8.45312 23.6436 8.22656C23.6025 8.26758 23.5566 8.31055 23.5059 8.35547C23.4551 8.40039 23.2227 8.59082 22.8086 8.92676L22.5508 8.59277L23.6846 7.7168H24.0947V12Z" fill="white"/>
</svg>
