<svg width="122" height="32" viewBox="0 0 122 32" fill="none" xmlns="http://www.w3.org/2000/svg">
<path fill-rule="evenodd" clip-rule="evenodd" d="M13.6594 32C13.3037 32 12.9451 31.9059 12.6276 31.7147L8.07158 28.9893C7.43961 28.6099 7.04573 27.9058 7.04573 27.1501V20.4488H2.05758C0.92297 20.4488 0 19.4958 0 18.3242V9.09479C0 8.3421 0.390939 7.63798 1.02291 7.25861L12.6247 0.287189C13.2596 -0.0952223 14.0503 -0.0952223 14.6882 0.284154L26.3869 7.25861C27.0219 7.63798 27.4157 8.3421 27.4157 9.09782V22.9314C27.4157 23.6901 27.0219 24.3943 26.384 24.7736L14.6852 31.7208C14.3678 31.9059 14.015 32 13.6594 32ZM8.80934 21.0466V27.1531C8.80934 27.2623 8.86519 27.3625 8.95631 27.4171L13.5124 30.1426C13.6035 30.1972 13.7152 30.1972 13.8063 30.1426L25.5051 23.1954C25.5962 23.1408 25.6521 23.0406 25.6521 22.9314V9.09782C25.6521 8.98856 25.5962 8.8884 25.5051 8.83377L13.8063 1.85932C13.7152 1.80469 13.6035 1.80469 13.5124 1.85932L1.91059 8.83377C1.81946 8.8884 1.76362 8.98856 1.76362 9.09478V18.3242C1.76362 18.4912 1.89589 18.6277 2.05755 18.6277H7.04571V12.6457C7.04571 11.8779 7.4484 11.1677 8.09507 10.7944L12.6541 8.15089C13.2772 7.78973 14.0238 7.78669 14.6499 8.14179L19.3324 10.7944C19.9908 11.1677 20.3994 11.8809 20.3994 12.6579V18.8159C20.3994 19.5989 19.9849 20.3182 19.3147 20.6885L14.6352 23.2835C14.015 23.6264 13.2772 23.6234 12.66 23.2683L8.80934 21.0466ZM13.5241 21.6719L8.80936 18.9646V12.6458C8.80936 12.5365 8.86815 12.4363 8.95927 12.3817L13.5212 9.73821C13.6094 9.68662 13.7181 9.68358 13.8063 9.73518L18.4888 12.3878C18.5828 12.4424 18.6416 12.5426 18.6416 12.6549V18.8129C18.6416 18.9252 18.5828 19.0284 18.4858 19.08L13.8063 21.6749C13.7181 21.7235 13.6123 21.7235 13.5241 21.6719Z" fill="#EBBB69"/>
<path fill-rule="evenodd" clip-rule="evenodd" d="M44.9034 13.7709C44.5272 13.1937 43.9898 12.7497 43.2882 12.4418C42.5866 12.131 41.7625 11.9771 40.8161 11.9771H36.3258V22.7996H38.353V19.6766H40.8161C41.7625 19.6766 42.5866 19.5227 43.2882 19.2118C43.9928 18.901 44.5302 18.457 44.9034 17.8738C45.2766 17.2906 45.4647 16.6098 45.4647 15.8253C45.4647 15.032 45.2766 14.3482 44.9034 13.7709ZM43.4195 15.8254C43.4195 16.5151 43.1897 17.0479 42.7329 17.418C42.2761 17.7909 41.6043 17.9745 40.7206 17.9715H38.35V13.6762H40.7206C41.6043 13.6762 42.2761 13.8627 42.7329 14.2328C43.1926 14.6057 43.4195 15.1356 43.4195 15.8254Z" fill="#313131"/>
<path d="M60.7568 11.9771V22.7967H58.7296V18.161H53.0869V22.7996H51.0597V11.9771H53.0869V16.444H58.7296V11.9771H60.7568Z" fill="#313131"/>
<path fill-rule="evenodd" clip-rule="evenodd" d="M67.0445 20.242C67.555 21.0915 68.2566 21.7546 69.1493 22.2342C70.042 22.7137 71.0451 22.9535 72.1588 22.9565C73.2724 22.9565 74.2755 22.7167 75.1682 22.2372C76.0609 21.7576 76.7625 21.0975 77.2731 20.2508C77.7836 19.4072 78.0374 18.454 78.0374 17.3913C78.0374 16.3315 77.7806 15.3783 77.2731 14.5317C76.7625 13.688 76.0609 13.0249 75.1682 12.5454C74.2726 12.0658 73.2694 11.826 72.1588 11.826C71.0451 11.826 70.042 12.0658 69.1493 12.5454C68.2566 13.0249 67.555 13.691 67.0445 14.5406C66.5339 15.3902 66.2802 16.3404 66.2802 17.3913C66.2802 18.4421 66.5369 19.3924 67.0445 20.242ZM75.4936 19.345C75.1622 19.9252 74.7055 20.3781 74.1233 20.7037C73.5411 21.0294 72.8842 21.1892 72.1588 21.1892C71.4303 21.1892 70.7764 21.0294 70.1942 20.7037C69.615 20.3811 69.1553 19.9282 68.8239 19.345C68.4925 18.7618 68.3253 18.1106 68.3253 17.3883C68.3253 16.666 68.4925 16.0147 68.8239 15.4316C69.1553 14.8514 69.6121 14.3985 70.1942 14.0728C70.7764 13.7472 71.4303 13.5844 72.1588 13.5844C72.8842 13.5844 73.5411 13.7472 74.1233 14.0728C74.7055 14.3955 75.1622 14.8484 75.4936 15.4316C75.825 16.0147 75.9922 16.666 75.9922 17.3883C75.9922 18.1106 75.825 18.7618 75.4936 19.345Z" fill="#313131"/>
<path d="M85.2176 13.6791H81.6021V11.98H90.8633V13.6791H87.2478V22.7996H85.2206V13.6791H85.2176Z" fill="#313131"/>
<path fill-rule="evenodd" clip-rule="evenodd" d="M96.1867 20.242C96.6972 21.0915 97.3988 21.7546 98.2915 22.2342C99.1842 22.7137 100.187 22.9565 101.301 22.9565C102.415 22.9565 103.418 22.7167 104.31 22.2372C105.203 21.7576 105.905 21.0975 106.415 20.2508C106.926 19.4072 107.18 18.454 107.18 17.3913C107.18 16.3315 106.923 15.3783 106.415 14.5317C105.905 13.688 105.203 13.0249 104.31 12.5454C103.415 12.0658 102.415 11.826 101.301 11.826C100.187 11.826 99.1842 12.0658 98.2915 12.5454C97.3988 13.0249 96.6972 13.691 96.1867 14.5406C95.6761 15.3902 95.4224 16.3404 95.4224 17.3913C95.4224 18.4421 95.6791 19.3924 96.1867 20.242ZM104.636 19.345C104.304 19.9252 103.848 20.3781 103.265 20.7037C102.683 21.0294 102.026 21.1892 101.301 21.1892C100.572 21.1892 99.9186 21.0294 99.3365 20.7037C98.7573 20.3811 98.2975 19.9282 97.9661 19.345C97.6347 18.7618 97.4675 18.1106 97.4675 17.3883C97.4675 16.666 97.6347 16.0147 97.9661 15.4316C98.2975 14.8514 98.7543 14.3985 99.3365 14.0728C99.9186 13.7472 100.572 13.5844 101.301 13.5844C102.026 13.5844 102.683 13.7472 103.265 14.0728C103.848 14.3955 104.304 14.8484 104.636 15.4316C104.967 16.0147 105.134 16.666 105.134 17.3883C105.134 18.1106 104.967 18.7618 104.636 19.345Z" fill="#313131"/>
<path d="M122 11.9771V22.7967H120.331L114.312 15.4701V22.7967H112.3V11.9771H113.969L119.988 19.3036V11.9771H122Z" fill="#313131"/>
</svg>
